<svg width="24" height="24" viewBox="0 0 24 24" fill="none" xmlns="http://www.w3.org/2000/svg">
<path d="M12.5 6.60889L12.5 20.5669C12.5 20.843 12.2761 21.0669 12 21.0669C11.7239 21.0669 11.5 20.843 11.5 20.5669L11.5 6.7219L6.61171 10.675C6.39398 10.8511 6.07287 10.8071 5.91058 10.5789C5.76188 10.3698 5.80146 10.0812 6.00094 9.91983L12.084 4.9999L18.0031 9.91832C18.2004 10.0822 18.2362 10.3712 18.0849 10.5783C17.9197 10.8046 17.5978 10.8445 17.3823 10.6655L12.5 6.60889Z" fill="#03003F"/>
<path d="M19 2.5C19 2.77614 18.7761 3 18.5 3L5.5 3C5.22386 3 5 2.77614 5 2.5C5 2.22386 5.22386 2 5.5 2L18.5 2C18.7761 2 19 2.22386 19 2.5Z" fill="#03003F"/>
</svg>
