<svg width="24" height="24" viewBox="0 0 24 24" fill="none" xmlns="http://www.w3.org/2000/svg">
<path d="M20 21.5333C20 21.9223 19.8796 22.2954 19.6653 22.5704C19.4509 22.8455 19.1602 23 18.8571 23H5.14286C4.83975 23 4.54906 22.8455 4.33474 22.5704C4.12041 22.2954 4 21.9223 4 21.5333V2.46668C4 2.0777 4.12041 1.70465 4.33474 1.42959C4.54906 1.15454 4.83975 1.00002 5.14286 1.00002H14.7C14.8483 0.999121 14.9954 1.0358 15.1326 1.10795C15.2699 1.18009 15.3948 1.28629 15.5 1.42046L19.6571 5.23646C19.7659 5.37253 19.8523 5.53525 19.9112 5.71496C19.9701 5.89467 20.0003 6.08772 20 6.28268V21.5333Z" stroke="#017777" stroke-width="1.5" stroke-linecap="round" stroke-linejoin="round"/>
<path d="M7.61709 6.18914C5.82666 7.30456 8.19517 10.1739 11.3505 12.1201C12.3461 12.7432 17.1955 15.8202 17.902 13.7048C18.4962 11.9201 16.3685 11.5047 12.049 12.797C6.6456 14.4125 6.42882 17.6203 8.03459 17.9664C10.1703 18.4357 10.5797 13.8432 10.6921 12.9509C11.0454 9.70464 9.5681 4.99679 7.61709 6.18914Z" stroke="#017777" stroke-width="1.5" stroke-linecap="round" stroke-linejoin="round"/>
<path d="M15 1V4C15 5.10457 15.8954 6 17 6H20" stroke="#017777" stroke-width="1.5"/>
</svg>
