<svg width="126" height="126" viewBox="0 0 126 126" fill="none" xmlns="http://www.w3.org/2000/svg">
<circle cx="63" cy="63" r="63" fill="#6147AA"/>
<path d="M58 31C58 29.8954 58.8954 29 60 29H95.963C96.3948 29 96.815 29.1397 97.1608 29.3983L107.858 37.3983C108.928 38.1982 108.928 39.8018 107.858 40.6017L97.1608 48.6017C96.815 48.8603 96.3948 49 95.963 49H60C58.8954 49 58 48.1046 58 47V31Z" fill="#FBBD84"/>
<path d="M58 77C58 75.8954 58.8954 75 60 75H75.963C76.3948 75 76.815 75.1397 77.1608 75.3983L87.8583 83.3983C88.9279 84.1982 88.9279 85.8018 87.8583 86.6017L77.1608 94.6017C76.815 94.8603 76.3948 95 75.963 95H60C58.8954 95 58 94.1046 58 93V77Z" fill="#95D2D0"/>
<path d="M69 70C69 71.1046 68.1046 72 67 72H29.037C28.6052 72 28.185 71.8603 27.8392 71.6017L17.1417 63.6017C16.0721 62.8018 16.0721 61.1982 17.1417 60.3983L27.8392 52.3983C28.185 52.1397 28.6052 52 29.037 52H67C68.1046 52 69 52.8954 69 54V70Z" fill="#E26178"/>
<circle cx="62.5" cy="19.5" r="6.5" fill="white"/>
<path d="M61 100C61 98.8954 61.8954 98 63 98C64.1046 98 65 98.8954 65 100V126H61V100Z" fill="white"/>
</svg>
