<svg width="32" height="32" viewBox="0 0 32 32" fill="none" xmlns="http://www.w3.org/2000/svg">
<path d="M13.3799 9.99905L12.5333 6.82972C12.3818 6.26083 12.3631 5.66475 12.4786 5.08749C12.5942 4.51023 12.8408 3.96725 13.1996 3.50049C13.5583 3.03372 14.0195 2.65565 14.5476 2.39548C15.0757 2.13531 15.6566 2 16.2453 2C16.834 2 17.4148 2.13531 17.9429 2.39548C18.471 2.65565 18.9322 3.03372 19.291 3.50049C19.6497 3.96725 19.8964 4.51023 20.0119 5.08749C20.1274 5.66475 20.1087 6.26083 19.9573 6.82972L19.1133 9.99905" stroke="#03003F" stroke-width="2.5" stroke-linecap="round" stroke-linejoin="round"/>
<path d="M9.9693 16.7139L5.42397 17.2112C4.8385 17.2751 4.27556 17.4727 3.77864 17.7888C3.28173 18.1049 2.86416 18.531 2.5582 19.0343C2.25224 19.5375 2.06608 20.1043 2.01413 20.691C1.96217 21.2776 2.04579 21.8684 2.25854 22.4175C2.47129 22.9667 2.80747 23.4596 3.24108 23.8581C3.6747 24.2567 4.19414 24.5502 4.75927 24.7159C5.3244 24.8817 5.92008 24.9153 6.50027 24.8141C7.08046 24.713 7.62961 24.4798 8.1053 24.1325L9.8813 22.8379" stroke="#03003F" stroke-width="2.5" stroke-linecap="round" stroke-linejoin="round"/>
<path d="M22.0306 16.7139L26.576 17.2112C27.1614 17.2751 27.7244 17.4727 28.2213 17.7888C28.7182 18.1049 29.1358 18.531 29.4417 19.0343C29.7477 19.5375 29.9339 20.1043 29.9858 20.691C30.0378 21.2776 29.9541 21.8684 29.7414 22.4175C29.5286 22.9667 29.1925 23.4596 28.7589 23.8581C28.3252 24.2567 27.8058 24.5502 27.2407 24.7159C26.6755 24.8817 26.0799 24.9153 25.4997 24.8141C24.9195 24.713 24.3703 24.4798 23.8946 24.1325L22.1186 22.8379" stroke="#03003F" stroke-width="2.5" stroke-linecap="round" stroke-linejoin="round"/>
<path d="M13 16C13 16.7956 13.3161 17.5587 13.8787 18.1213C14.4413 18.6839 15.2044 19 16 19C16.7956 19 17.5587 18.6839 18.1213 18.1213C18.6839 17.5587 19 16.7956 19 16C19 15.2044 18.6839 14.4413 18.1213 13.8787C17.5587 13.3161 16.7956 13 16 13C15.2044 13 14.4413 13.3161 13.8787 13.8787C13.3161 14.4413 13 15.2044 13 16V16Z" stroke="#03003F" stroke-width="2.5" stroke-linecap="round" stroke-linejoin="round"/>
</svg>
