<svg width="284" height="261" viewBox="0 0 284 261" fill="none" xmlns="http://www.w3.org/2000/svg">
<rect width="283.464" height="260.788" fill="#E60010"/>
<path d="M168.708 182.094C167.69 186.059 166.58 189.787 165.376 193.222C157.514 192.516 149.397 192.143 141.197 192.143C133.339 192.143 125.643 192.471 118.204 193.098C117.015 189.696 115.918 186.012 114.916 182.094H108.833C109.824 186.133 110.931 190.014 112.156 193.676C101.674 194.765 91.2934 196.676 81.1108 199.392C75.2005 194.296 69.9459 188.485 65.4678 182.094H58.2954C67.237 196.142 79.5781 207.708 94.1763 215.721C108.774 223.734 125.158 227.935 141.811 227.935C158.464 227.935 174.847 223.734 189.445 215.721C204.044 207.708 216.385 196.142 225.326 182.094H218.157C213.603 188.594 208.244 194.491 202.209 199.645C192.112 196.909 181.816 194.966 171.416 193.835C172.662 190.125 173.786 186.193 174.793 182.093L168.708 182.094ZM86.9326 204.013C95.9238 201.886 105.046 200.361 114.24 199.445C117.897 208.769 122.696 216.441 127.443 221.264C112.778 218.754 98.9048 212.846 86.9326 204.013V204.013ZM141.813 222.427C134.293 222.427 126.521 213.584 120.408 198.886C127.203 198.354 134.174 198.072 141.198 198.072C148.646 198.072 156.016 198.388 163.175 198.982C157.069 213.62 149.316 222.427 141.813 222.427H141.813ZM196.385 204.238C184.481 212.945 170.719 218.773 156.182 221.264C160.909 216.463 165.69 208.834 169.339 199.569C178.449 200.516 187.485 202.076 196.385 204.238H196.385Z" fill="white"/>
<path d="M163.3 111.591V85.792H142.582C136.22 84.9019 129.81 84.3936 123.387 84.27C99.5181 84.27 83.1655 93.0068 83.1655 112.304C83.1655 150.29 137.911 133.73 137.911 147.949C137.911 152.319 133.541 154.756 122.777 154.756C114.651 154.756 107.543 153.028 104.498 151.405V145.918H83.7764V171.715H104.498C111.233 172.611 118.014 173.12 124.808 173.238C156.192 173.238 166.652 160.443 166.652 144.803C166.652 107.023 111.403 124.386 111.403 109.256C111.403 105.598 115.161 102.755 124.808 102.755C132.325 102.755 139.534 104.485 142.582 106.106V111.591H163.3Z" fill="white"/>
<path d="M22.2261 150.563V171.891H77.5761V150.563H63.6621V107.295H77.5761V85.967H22.2261V107.295H36.1371V150.563H22.2261Z" fill="white"/>
<path d="M218.155 75.7632H225.326C216.384 61.7151 204.043 50.1496 189.445 42.137C174.847 34.1245 158.463 29.9238 141.811 29.9238C125.158 29.9238 108.775 34.1245 94.1766 42.137C79.5784 50.1496 67.2373 61.7151 58.2954 75.7632H65.4654C70.0212 69.2653 75.379 63.3685 81.4116 58.2124C91.5089 60.9498 101.805 62.8926 112.206 64.0229C110.96 67.7354 109.836 71.6636 108.83 75.7629H114.915C115.933 71.7995 117.042 68.07 118.248 64.6345C126.109 65.342 134.228 65.7145 142.426 65.7145C150.285 65.7145 157.978 65.3863 165.42 64.7608C166.606 68.1608 167.705 71.8482 168.706 75.7633H174.792C173.798 71.7242 172.69 67.8443 171.469 64.1827C181.949 63.0923 192.328 61.1815 202.509 58.4679C208.422 63.5613 213.678 69.371 218.155 75.7632V75.7632ZM114.285 58.2915C105.175 57.3419 96.1395 55.7821 87.2384 53.6226C99.1414 44.9132 112.903 39.0841 127.44 36.5938C122.714 41.3936 117.93 49.0269 114.285 58.2915H114.285ZM142.426 59.7856C134.98 59.7856 127.606 59.4712 120.446 58.8774C126.553 44.2397 134.304 35.4307 141.811 35.4307C149.331 35.4307 157.103 44.2769 163.214 58.9722C156.422 59.5049 149.448 59.7837 142.426 59.7856H142.426ZM169.384 58.4111C165.725 49.0864 160.927 41.4141 156.179 36.5938C170.844 39.104 184.717 45.0125 196.689 53.8462C187.699 55.9729 178.577 57.4979 169.384 58.4111H169.384Z" fill="white"/>
<path d="M217.352 84.27C189.928 84.27 170.327 100.213 170.327 128.754C170.327 157.295 189.928 173.239 217.352 173.239C244.771 173.239 264.375 157.295 264.375 128.754C264.375 100.213 244.771 84.27 217.352 84.27ZM217.352 153.028C206.482 153.028 199.577 146.123 199.577 128.754C199.577 111.39 206.482 104.485 217.352 104.485C228.217 104.485 235.124 111.39 235.124 128.754C235.124 146.123 228.217 153.027 217.352 153.027V153.028Z" fill="white"/>
</svg>
