<svg width="149" height="52" viewBox="0 0 149 52" fill="none" xmlns="http://www.w3.org/2000/svg">
<path d="M6.32103 33.3226C4.48637 33.3226 3.1032 32.8353 2.17153 31.8606C1.2542 30.8716 0.795532 29.4239 0.795532 27.5176C0.795532 25.4679 1.26137 23.9988 2.19303 23.1101C3.13903 22.2071 4.51503 21.7556 6.32103 21.7556C7.53937 21.7556 8.55703 21.9634 9.37403 22.3791C10.2054 22.7804 10.8289 23.4039 11.2445 24.2496C11.6745 25.0953 11.8895 26.1846 11.8895 27.5176C11.8895 29.4239 11.4094 30.8716 10.449 31.8606C9.4887 32.8353 8.1127 33.3226 6.32103 33.3226ZM6.32103 30.7641C6.85137 30.7641 7.28853 30.6423 7.63253 30.3986C7.99087 30.1406 8.25603 29.7751 8.42803 29.3021C8.61437 28.8148 8.70753 28.2199 8.70753 27.5176C8.70753 26.7149 8.61437 26.0843 8.42803 25.6256C8.25603 25.1526 7.99087 24.8158 7.63253 24.6151C7.2742 24.4001 6.83703 24.2926 6.32103 24.2926C5.77637 24.2926 5.33203 24.4001 4.98803 24.6151C4.64403 24.8301 4.38603 25.1741 4.21403 25.6471C4.05637 26.1058 3.97753 26.7293 3.97753 27.5176C3.97753 28.6069 4.16387 29.4239 4.53653 29.9686C4.92353 30.4989 5.51837 30.7641 6.32103 30.7641Z" fill="#03003F"/>
<path d="M18.7877 33.3226C17.7843 33.3226 16.8957 33.1649 16.1217 32.8496C15.3477 32.5343 14.7457 32.0541 14.3157 31.4091C13.8857 30.7498 13.6707 29.8969 13.6707 28.8506V22.1211H16.8742V28.5926C16.8742 29.2806 17.0247 29.7966 17.3257 30.1406C17.641 30.4703 18.1355 30.6351 18.8092 30.6351C19.4972 30.6351 19.9917 30.4703 20.2927 30.1406C20.5937 29.7966 20.7442 29.2806 20.7442 28.5926V22.1211H23.7542V28.8506C23.7542 30.3986 23.3098 31.5309 22.4212 32.2476C21.5325 32.9643 20.3213 33.3226 18.7877 33.3226Z" fill="#03003F"/>
<path d="M26.1533 33.0001V23.2606C26.3539 23.0886 26.7123 22.8951 27.2283 22.6801C27.7443 22.4508 28.3319 22.2501 28.9913 22.0781C29.6649 21.8918 30.3386 21.7986 31.0123 21.7986C31.6859 21.7986 32.2163 21.8488 32.6033 21.9491C32.9903 22.0494 33.2841 22.1784 33.4848 22.3361V24.6796C33.2411 24.6223 32.9329 24.5793 32.5603 24.5506C32.1876 24.5219 31.8006 24.5076 31.3993 24.5076C30.9979 24.4933 30.6181 24.4933 30.2598 24.5076C29.9014 24.5219 29.6004 24.5506 29.3568 24.5936V33.0001H26.1533Z" fill="#03003F"/>
<path d="M91.171 33.9999L87.516 23.1209H90.9775L93.407 31.9144L92.3965 31.9574L94.697 23.1209H97.062L99.3195 31.6994H98.524L100.846 23.1209H104.243L100.631 33.9999H97.7285L95.5785 26.9694L96.116 27.0339L94.0735 33.9999H91.171Z" fill="#03003F"/>
<path d="M109.982 34.3224C108.147 34.3224 106.764 33.8351 105.832 32.8604C104.915 31.8714 104.456 30.4238 104.456 28.5174C104.456 26.4678 104.922 24.9986 105.854 24.1099C106.8 23.2069 108.176 22.7554 109.982 22.7554C111.2 22.7554 112.218 22.9633 113.035 23.3789C113.866 23.7803 114.49 24.4038 114.905 25.2494C115.335 26.0951 115.55 27.1844 115.55 28.5174C115.55 30.4238 115.07 31.8714 114.11 32.8604C113.149 33.8351 111.773 34.3224 109.982 34.3224ZM109.982 31.7639C110.512 31.7639 110.949 31.6421 111.293 31.3984C111.652 31.1404 111.917 30.7749 112.089 30.3019C112.275 29.8146 112.368 29.2198 112.368 28.5174C112.368 27.7148 112.275 27.0841 112.089 26.6254C111.917 26.1524 111.652 25.8156 111.293 25.6149C110.935 25.3999 110.498 25.2924 109.982 25.2924C109.437 25.2924 108.993 25.3999 108.649 25.6149C108.305 25.8299 108.047 26.1739 107.875 26.6469C107.717 27.1056 107.638 27.7291 107.638 28.5174C107.638 29.6068 107.825 30.4238 108.197 30.9684C108.584 31.4988 109.179 31.7639 109.982 31.7639Z" fill="#03003F"/>
<path d="M117.331 33.9999V24.2604C117.532 24.0884 117.89 23.8949 118.406 23.6799C118.922 23.4506 119.51 23.2499 120.169 23.0779C120.843 22.8916 121.517 22.7984 122.19 22.7984C122.864 22.7984 123.394 22.8486 123.781 22.9489C124.168 23.0493 124.462 23.1783 124.663 23.3359V25.6794C124.419 25.6221 124.111 25.5791 123.738 25.5504C123.366 25.5218 122.979 25.5074 122.577 25.5074C122.176 25.4931 121.796 25.4931 121.438 25.5074C121.08 25.5218 120.779 25.5504 120.535 25.5934V33.9999H117.331Z" fill="#03003F"/>
<path d="M129.28 33.9999H126.098V19.0144H129.28V33.9999Z" fill="#03003F"/>
<path d="M136.897 34.3224C136.051 34.3224 135.27 34.2293 134.553 34.0429C133.851 33.8566 133.242 33.5484 132.726 33.1184C132.21 32.6741 131.801 32.0721 131.5 31.3124C131.213 30.5528 131.07 29.6068 131.07 28.4744C131.07 26.7114 131.5 25.3211 132.36 24.3034C133.234 23.2858 134.539 22.7769 136.273 22.7769C136.502 22.7769 136.803 22.7984 137.176 22.8414C137.549 22.8701 137.936 22.9561 138.337 23.0994C138.738 23.2428 139.097 23.4864 139.412 23.8304L138.767 24.8194V18.6489H141.949V31.1619C141.949 31.6923 141.806 32.1581 141.519 32.5594C141.232 32.9464 140.845 33.2689 140.358 33.5269C139.885 33.7849 139.348 33.9784 138.746 34.1074C138.144 34.2508 137.527 34.3224 136.897 34.3224ZM137.026 31.6349C137.542 31.6349 137.957 31.5704 138.273 31.4414C138.602 31.2981 138.767 31.0903 138.767 30.8179V25.8084C138.509 25.6651 138.23 25.5576 137.929 25.4859C137.642 25.3999 137.362 25.3569 137.09 25.3569C136.488 25.3569 135.979 25.4573 135.564 25.6579C135.148 25.8586 134.833 26.1954 134.618 26.6684C134.417 27.1414 134.317 27.7793 134.317 28.5819C134.317 29.2126 134.403 29.7573 134.575 30.2159C134.747 30.6603 135.026 31.0114 135.413 31.2694C135.814 31.5131 136.352 31.6349 137.026 31.6349Z" fill="#03003F"/>
<circle cx="60.5" cy="26.5" r="24.5" fill="#03003F"/>
<path d="M35.505 33.9999V31.5489C35.9923 31.2622 36.5227 30.9039 37.096 30.4739C37.6693 30.0439 38.2283 29.5709 38.773 29.0549C39.332 28.5389 39.8337 28.0085 40.278 27.4639C40.7367 26.9192 41.1022 26.3745 41.3745 25.8299C41.6468 25.2709 41.783 24.7549 41.783 24.2819C41.783 23.7659 41.6755 23.3502 41.4605 23.0349C41.2455 22.7052 40.9517 22.4687 40.579 22.3254C40.2207 22.1677 39.7978 22.0889 39.3105 22.0889C38.6225 22.0889 37.9847 22.2465 37.397 22.5619C36.8093 22.8629 36.2217 23.2427 35.634 23.7014V20.7129C36.193 20.3689 36.8523 20.0607 37.612 19.7884C38.386 19.516 39.3033 19.3799 40.364 19.3799C41.4247 19.3799 42.3205 19.559 43.0515 19.9174C43.7825 20.2614 44.3343 20.763 44.707 21.4224C45.0797 22.0674 45.266 22.8557 45.266 23.7874C45.266 24.461 45.1298 25.106 44.8575 25.7224C44.5995 26.3244 44.2483 26.8977 43.804 27.4424C43.3597 27.9727 42.8652 28.4744 42.3205 28.9474C41.7758 29.406 41.224 29.8361 40.665 30.2374C40.1203 30.6387 39.6115 31.0114 39.1385 31.3554L38.472 30.8179H45.5455V33.9999H35.505Z" fill="white"/>
<path d="M53.8101 34.2794C51.6601 34.2794 50.0762 33.6631 49.0586 32.4304C48.0552 31.1834 47.5536 29.32 47.5536 26.8404C47.5536 24.3607 48.0552 22.5045 49.0586 21.2719C50.0762 20.0249 51.6601 19.4014 53.8101 19.4014C55.9744 19.4014 57.5582 20.0249 58.5616 21.2719C59.5649 22.5045 60.0666 24.3607 60.0666 26.8404C60.0666 29.32 59.5649 31.1834 58.5616 32.4304C57.5582 33.6631 55.9744 34.2794 53.8101 34.2794ZM53.8101 31.4629C54.1397 31.4629 54.4622 31.4127 54.7776 31.3124C55.1072 31.1977 55.4011 30.9827 55.6591 30.6674C55.9171 30.352 56.1249 29.8862 56.2826 29.2699C56.4402 28.6535 56.5191 27.8437 56.5191 26.8404C56.5191 25.837 56.4402 25.0344 56.2826 24.4324C56.1249 23.8304 55.9171 23.3717 55.6591 23.0564C55.4011 22.741 55.1072 22.526 54.7776 22.4114C54.4622 22.2967 54.1397 22.2394 53.8101 22.2394C53.4804 22.2394 53.1507 22.2967 52.8211 22.4114C52.5057 22.526 52.2191 22.741 51.9611 23.0564C51.7031 23.3717 51.4952 23.8304 51.3376 24.4324C51.1942 25.0344 51.1226 25.837 51.1226 26.8404C51.1226 27.8437 51.1942 28.6535 51.3376 29.2699C51.4952 29.8862 51.7031 30.352 51.9611 30.6674C52.2191 30.9827 52.5057 31.1977 52.8211 31.3124C53.1507 31.4127 53.4804 31.4629 53.8101 31.4629Z" fill="white"/>
<path d="M66.5814 34.2579C65.6497 34.2579 64.7969 34.1432 64.0229 33.9139C63.2632 33.6702 62.6899 33.4051 62.3029 33.1184V29.8719C62.5466 30.1156 62.8619 30.3592 63.2489 30.6029C63.6359 30.8322 64.0731 31.0257 64.5604 31.1834C65.0621 31.3411 65.5852 31.4199 66.1299 31.4199C66.5886 31.4199 66.9899 31.3697 67.3339 31.2694C67.6779 31.1691 67.9717 31.0329 68.2154 30.8609C68.4591 30.6746 68.6382 30.4595 68.7529 30.2159C68.8819 29.9579 68.9464 29.6784 68.9464 29.3774C68.9464 28.8614 68.8389 28.4529 68.6239 28.1519C68.4089 27.8509 68.1222 27.6359 67.7639 27.5069C67.4056 27.3636 67.0114 27.2919 66.5814 27.2919C66.1371 27.2919 65.7286 27.3349 65.3559 27.4209C64.9832 27.4925 64.6607 27.5857 64.3884 27.7004C64.1304 27.8007 63.9441 27.8796 63.8294 27.9369L62.2814 26.2169L63.1844 19.6379H71.3329V22.6694H65.3989L64.8399 26.6254L62.5394 25.8944C63.1271 25.3497 63.8294 24.9555 64.6464 24.7119C65.4777 24.4539 66.4237 24.3249 67.4844 24.3249C68.1437 24.3249 68.7672 24.418 69.3549 24.6044C69.9569 24.7764 70.4944 25.0559 70.9674 25.4429C71.4404 25.8155 71.8131 26.3029 72.0854 26.9049C72.3577 27.5069 72.4939 28.245 72.4939 29.1194C72.4939 30.1227 72.3291 30.9612 71.9994 31.6349C71.6697 32.2942 71.2254 32.8174 70.6664 33.2044C70.1074 33.5771 69.4696 33.8422 68.7529 33.9999C68.0506 34.1719 67.3267 34.2579 66.5814 34.2579Z" fill="white"/>
<path d="M80.119 34.2794C77.969 34.2794 76.3852 33.6631 75.3675 32.4304C74.3642 31.1834 73.8625 29.32 73.8625 26.8404C73.8625 24.3607 74.3642 22.5045 75.3675 21.2719C76.3852 20.0249 77.969 19.4014 80.119 19.4014C82.2833 19.4014 83.8672 20.0249 84.8705 21.2719C85.8738 22.5045 86.3755 24.3607 86.3755 26.8404C86.3755 29.32 85.8738 31.1834 84.8705 32.4304C83.8672 33.6631 82.2833 34.2794 80.119 34.2794ZM80.119 31.4629C80.4487 31.4629 80.7712 31.4127 81.0865 31.3124C81.4162 31.1977 81.71 30.9827 81.968 30.6674C82.226 30.352 82.4338 29.8862 82.5915 29.2699C82.7492 28.6535 82.828 27.8437 82.828 26.8404C82.828 25.837 82.7492 25.0344 82.5915 24.4324C82.4338 23.8304 82.226 23.3717 81.968 23.0564C81.71 22.741 81.4162 22.526 81.0865 22.4114C80.7712 22.2967 80.4487 22.2394 80.119 22.2394C79.7893 22.2394 79.4597 22.2967 79.13 22.4114C78.8147 22.526 78.528 22.741 78.27 23.0564C78.012 23.3717 77.8042 23.8304 77.6465 24.4324C77.5032 25.0344 77.4315 25.837 77.4315 26.8404C77.4315 27.8437 77.5032 28.6535 77.6465 29.2699C77.8042 29.8862 78.012 30.352 78.27 30.6674C78.528 30.9827 78.8147 31.1977 79.13 31.3124C79.4597 31.4127 79.7893 31.4629 80.119 31.4629Z" fill="white"/>
</svg>
