<svg width="600" height="179" viewBox="0 0 600 179" fill="none" xmlns="http://www.w3.org/2000/svg">
<path d="M308.083 42.7V61.4C308.083 67.8 309.283 70.1 314.083 70.1C318.883 70.1 319.983 67.7 319.983 61.4V42.8H326.083V61.2C326.083 70.9 322.983 75 313.883 75C304.883 75 301.983 71.3 301.983 61.6V42.8H308.083V42.7Z" fill="black"/>
<path d="M332.083 51.7H336.983L337.383 54C340.083 52.3 342.483 51.3 345.383 51.3C350.083 51.3 352.183 53.5 352.183 58.7V74.2H346.183V59.9C346.183 57 345.283 56.1 343.383 56.1C341.883 56.1 340.183 56.8 338.183 58.1V74.1H332.183V51.7H332.083Z" fill="black"/>
<path d="M361.283 47.8C358.583 47.8 357.883 47.1 357.883 44.5C357.883 41.9 358.683 41.2 361.283 41.2C363.983 41.2 364.683 41.9 364.683 44.5C364.683 47 363.983 47.8 361.283 47.8ZM358.283 51.7H364.283V74.2H358.283V51.7Z" fill="black"/>
<path d="M371.383 51.7V45.4L377.383 44.6V51.7H382.283V56.2H377.383V66.9C377.383 69.2 378.083 70 379.683 70C380.583 70 381.483 69.9 382.283 69.6L382.783 73.9C381.383 74.3 379.783 74.6 377.883 74.6C372.983 74.6 371.383 72.8 371.383 68.5V56.2H368.083V51.7H371.383V51.7Z" fill="black"/>
<path d="M403.783 73.7C401.283 74.2 398.883 74.6 395.983 74.6C389.283 74.6 385.583 72.6 385.583 63C385.583 53.7 389.683 51 395.883 51C402.083 51 404.783 53.1 404.783 61.2C404.783 62.3 404.683 63.5 404.683 64.6H391.683C391.783 69.2 393.083 70 397.083 70C399.383 70 401.083 69.7 403.383 69.2L403.783 73.7ZM399.483 60.9C399.483 56.7 398.383 55.6 395.683 55.6C393.083 55.6 391.783 56.7 391.683 60.9H399.483Z" fill="black"/>
<path d="M423.783 72C421.483 73.5 419.383 74.6 416.683 74.6C411.983 74.6 408.883 72 408.883 63.3C408.883 54.5 413.083 51.3 418.383 51.3C420.183 51.3 421.783 51.7 423.283 52.5L423.383 52.4C423.183 50.8 423.083 49.4 423.083 47.8V40.7H429.083V74.2H424.183L423.783 72ZM423.083 57C421.783 56.3 420.783 55.9 419.483 55.9C417.183 55.9 414.983 57.4 414.983 63.1C414.983 68.7 416.283 69.8 418.483 69.8C419.783 69.8 421.183 69.1 423.083 67.8V57Z" fill="black"/>
<path d="M448.083 42.7H455.883L464.483 59.3C465.983 62.1 466.983 64.6 468.383 67.7H468.483C468.083 64.5 467.883 61.7 467.883 59.3V42.7H473.183V74.2H465.383L456.783 57.6C455.383 54.8 454.183 52.3 452.983 49.2H452.883C453.183 52.3 453.383 55.2 453.383 57.6V74.2H448.083V42.7V42.7Z" fill="black"/>
<path d="M493.383 72C491.083 73.5 488.983 74.6 486.283 74.6C481.583 74.6 478.483 72 478.483 63.3C478.483 54.5 482.683 51.3 487.983 51.3C490.183 51.3 491.683 51.8 493.483 52.8L493.683 51.7H498.583V74.2H493.683L493.383 72ZM492.683 57C491.383 56.3 490.383 55.9 489.083 55.9C486.783 55.9 484.583 57.4 484.583 63.1C484.583 68.7 485.883 69.8 488.083 69.8C489.383 69.8 490.783 69.1 492.683 67.8V57Z" fill="black"/>
<path d="M505.783 51.7V45.4L511.783 44.6V51.7H516.683V56.2H511.783V66.9C511.783 69.2 512.483 70 514.083 70C515.083 70 515.883 69.9 516.683 69.6L517.183 73.9C515.783 74.3 514.183 74.6 512.283 74.6C507.383 74.6 505.783 72.8 505.783 68.5V56.2H502.483V51.7H505.783V51.7Z" fill="black"/>
<path d="M524.383 47.8C521.683 47.8 520.983 47.1 520.983 44.5C520.983 41.9 521.783 41.2 524.383 41.2C527.083 41.2 527.783 41.9 527.783 44.5C527.783 47 527.083 47.8 524.383 47.8ZM521.383 51.7H527.383V74.2H521.383V51.7Z" fill="black"/>
<path d="M542.883 74.8C536.183 74.8 532.583 72.4 532.583 63.1C532.583 53.9 536.483 51.1 543.083 51.1C549.783 51.1 553.383 53.5 553.383 62.8C553.383 72 549.483 74.8 542.883 74.8ZM542.983 55.6C539.983 55.6 538.683 56.9 538.683 62.9C538.683 68.9 539.983 70.2 542.983 70.2C545.983 70.2 547.283 68.9 547.283 62.9C547.383 57 545.983 55.6 542.983 55.6Z" fill="black"/>
<path d="M558.683 51.7H563.583L563.983 54C566.683 52.3 569.083 51.3 571.983 51.3C576.683 51.3 578.783 53.5 578.783 58.7V74.2H572.783V59.9C572.783 57 571.883 56.1 569.983 56.1C568.483 56.1 566.783 56.8 564.783 58.1V74.1H558.783V51.7H558.683Z" fill="black"/>
<path d="M584.083 69.4C586.383 69.9 588.283 70.3 590.083 70.3C592.783 70.3 594.083 69.5 594.083 68.1C594.083 66.7 593.183 66.3 589.383 64.8C585.183 63.1 583.583 61.8 583.583 58.2C583.583 53.6 586.683 51.3 593.083 51.3C595.083 51.3 596.983 51.6 598.483 52L597.883 56.3C596.283 55.9 594.483 55.6 592.783 55.6C590.383 55.6 589.083 56.2 589.083 57.6C589.083 58.7 589.983 59.2 593.483 60.6C597.883 62.4 599.683 63.6 599.683 67.5C599.683 72 596.883 74.5 589.783 74.5C587.483 74.5 585.583 74.2 583.583 73.6L584.083 69.4Z" fill="black"/>
<path d="M321.183 131.5C319.183 132 316.783 132.5 314.283 132.5C306.283 132.5 302.483 129.9 302.483 116.4C302.483 103 306.783 100.1 314.583 100.1C316.983 100.1 319.383 100.5 321.183 101L320.783 103.1C318.983 102.6 316.683 102.2 314.583 102.2C308.483 102.2 305.183 104.3 305.183 116.2C305.183 128.2 308.283 130.3 314.583 130.3C316.583 130.3 318.883 129.8 320.783 129.3L321.183 131.5Z" fill="black"/>
<path d="M329.883 98.6H327.183V132.1H329.883V98.6Z" fill="black"/>
<path d="M339.883 104.3C338.383 104.3 337.983 103.9 337.983 102.4C337.983 100.9 338.383 100.5 339.883 100.5C341.383 100.5 341.783 100.9 341.783 102.4C341.783 103.9 341.383 104.3 339.883 104.3ZM338.483 110H341.183V132.1H338.483V110Z" fill="black"/>
<path d="M348.983 110H351.183L351.383 112.4C354.283 110.7 356.983 109.5 359.683 109.5C362.883 109.5 364.383 111 365.283 112.7C368.583 110.7 371.383 109.5 373.983 109.5C378.183 109.5 380.283 111.6 380.283 116.8V132.1H377.583V117.2C377.583 113.2 376.183 111.7 373.383 111.7C371.283 111.7 368.983 112.7 365.683 114.7C365.783 115.4 365.883 115.9 365.883 117.1V132.1H363.183V117.2C363.183 113.2 361.683 111.7 358.983 111.7C356.883 111.7 354.583 112.7 351.583 114.6V132.1H348.883V110H348.983Z" fill="black"/>
<path d="M402.383 129.7C399.883 131.3 397.483 132.5 394.783 132.5C389.883 132.5 386.983 130 386.983 121.2C386.983 112.3 391.483 109.5 396.383 109.5C398.683 109.5 400.483 110.2 402.483 111.3L402.583 110H404.783V132.1H402.583L402.383 129.7ZM402.183 113.5C400.183 112.4 398.583 111.7 396.483 111.7C393.083 111.7 389.683 113.6 389.683 121.2C389.683 128.7 391.783 130.4 395.383 130.4C397.283 130.4 399.383 129.4 402.183 127.6V113.5Z" fill="black"/>
<path d="M413.783 110V103.2L416.483 102.8V110H421.683V112.1H416.483V127.2C416.483 129.6 417.283 130.3 418.983 130.3C419.983 130.3 420.883 130.2 421.683 129.9L421.983 131.9C420.983 132.2 419.783 132.5 418.483 132.5C415.083 132.5 413.783 131.1 413.783 127.9V112.1H410.383V110H413.783V110Z" fill="black"/>
<path d="M441.983 131.6C439.783 132.1 437.583 132.5 435.183 132.5C429.683 132.5 426.083 130.8 426.083 121.1C426.083 111.8 429.683 109.4 435.183 109.4C440.683 109.4 443.083 111.5 443.083 119.8C443.083 120.3 443.083 120.7 442.983 121.4H428.683C428.783 129.3 431.083 130.4 435.683 130.4C437.883 130.4 439.583 130.1 441.583 129.6L441.983 131.6ZM440.583 119.4C440.483 112.8 438.783 111.5 435.083 111.5C431.383 111.5 429.083 113 428.883 119.4H440.583Z" fill="black"/>
<path d="M477.183 131.5C475.183 132 472.783 132.5 470.283 132.5C462.283 132.5 458.483 129.9 458.483 116.4C458.483 103 462.783 100.1 470.583 100.1C472.983 100.1 475.383 100.5 477.183 101L476.783 103.1C474.983 102.6 472.683 102.2 470.583 102.2C464.483 102.2 461.183 104.3 461.183 116.2C461.183 128.2 464.283 130.3 470.583 130.3C472.583 130.3 474.983 129.8 476.783 129.3L477.183 131.5Z" fill="black"/>
<path d="M483.183 98.6H485.883V106.5C485.883 108.2 485.783 110.1 485.683 112.2H485.783C488.483 110.6 491.483 109.4 494.383 109.4C498.983 109.4 501.083 111.5 501.083 116.7V132H498.383V117.1C498.383 113.1 496.883 111.6 493.783 111.6C491.483 111.6 488.883 112.6 485.983 114.5V132H483.183V98.6Z" fill="black"/>
<path d="M523.083 129.7C520.583 131.3 518.183 132.5 515.483 132.5C510.583 132.5 507.683 130 507.683 121.2C507.683 112.3 512.183 109.5 517.083 109.5C519.383 109.5 521.183 110.2 523.183 111.3L523.283 110H525.483V132.1H523.283L523.083 129.7ZM522.883 113.5C520.883 112.4 519.283 111.7 517.183 111.7C513.783 111.7 510.283 113.6 510.283 121.2C510.283 128.7 512.383 130.4 515.983 130.4C517.883 130.4 519.983 129.4 522.783 127.6V113.5H522.883Z" fill="black"/>
<path d="M533.283 110H535.483L535.683 112.4C538.583 110.7 541.483 109.5 544.383 109.5C548.983 109.5 551.083 111.6 551.083 116.8V132.1H548.383V117.2C548.383 113.2 546.883 111.7 543.783 111.7C541.483 111.7 538.883 112.7 535.983 114.6V132.1H533.283V110V110Z" fill="black"/>
<path d="M575.683 133.3C575.683 139.7 572.583 142.3 565.983 142.3C563.383 142.3 561.483 142 559.283 141.5L559.583 139.4C561.683 139.8 563.583 140.1 565.983 140.1C570.883 140.1 572.883 138.3 572.883 133.5V130H572.783C570.383 131.5 568.083 132.6 565.483 132.6C560.583 132.6 557.683 130.1 557.683 121.3C557.683 112.4 562.183 109.6 567.083 109.6C569.383 109.6 571.183 110.3 573.183 111.4L573.283 110.1H575.483V133.3H575.683ZM572.983 113.5C570.983 112.4 569.383 111.7 567.283 111.7C563.883 111.7 560.383 113.6 560.383 121.2C560.383 128.7 562.483 130.4 566.083 130.4C567.983 130.4 570.083 129.4 572.883 127.6V113.5H572.983Z" fill="black"/>
<path d="M598.783 131.6C596.583 132.1 594.383 132.5 591.983 132.5C586.483 132.5 582.883 130.8 582.883 121.1C582.883 111.8 586.483 109.4 591.983 109.4C597.483 109.4 599.883 111.5 599.883 119.8C599.883 120.3 599.883 120.7 599.883 121.4H585.583C585.683 129.3 588.083 130.4 592.583 130.4C594.783 130.4 596.483 130.1 598.483 129.6L598.783 131.6ZM597.383 119.4C597.283 112.8 595.583 111.5 591.883 111.5C588.183 111.5 585.883 113 585.683 119.4H597.383Z" fill="black"/>
<path d="M153.983 162.7C142.683 157.8 130.883 151.5 117.183 154.5C115.683 154.5 114.483 155.4 112.983 155.4C111.583 155.3 110.283 154.5 108.783 154.5C95.083 151.5 83.383 157.8 71.983 162.7C63.583 166 52.483 165.5 45.083 160.4C48.783 165 53.683 167.8 58.783 169.8C68.183 173.6 79.483 171 87.283 165.5C93.983 161.7 99.783 154.3 108.583 157.1C99.583 161.3 91.383 167.1 83.983 174.7L88.583 178.5C93.983 171.2 101.183 165.3 108.483 160.7C110.083 159.9 111.283 158.9 112.983 158.7C114.683 158.9 115.883 159.9 117.483 160.7C124.783 165.3 131.983 171.3 137.383 178.5L141.983 174.7C134.583 167.2 126.383 161.3 117.383 157.1C126.183 154.3 131.983 161.7 138.683 165.5C146.483 171 157.683 173.5 167.183 169.8C172.283 167.9 177.183 165 180.883 160.4C173.583 165.5 162.483 166 153.983 162.7Z" fill="black"/>
<path d="M28.0834 49.6C29.7834 45.7 31.1834 41.5 31.6834 37.3C30.9834 39.1 29.7834 40.6 28.3834 42.2C21.9834 48 14.6834 54 13.3834 62.4C13.1834 63.6 13.0834 64.8 12.6834 66C12.3834 66.1 12.3834 65.8 12.2834 65.7L13.0834 55.3C13.3834 45.1 8.48338 33.8 14.3834 24.9C14.1834 24.9 14.0834 25 13.8834 25.1C8.58338 31.9 4.78339 39.4 4.98339 48.6C4.28339 59.9 11.4834 67.8 12.2834 78.5C13.9834 67.2 23.0834 59.3 28.0834 49.6Z" fill="black"/>
<path d="M34.4831 131.8C33.3831 129 31.7831 126.5 30.8831 123.6C27.7831 110.4 29.4831 95.3 23.8831 83.2C24.8831 90.1 22.1831 96.2 21.5831 102.8C21.0831 108.2 21.8831 113.5 24.0831 118C24.5831 119.4 25.7831 120.6 26.1831 121.9C24.1831 120.1 22.8831 117.7 21.3831 115.5C14.9831 104.9 1.18313 98.1 0.283129 85.2C-0.216871 90.9 0.0831227 97.1 2.18312 102C7.18312 116.4 22.8831 123.9 34.4831 131.8Z" fill="black"/>
<path d="M15.4833 51.6C17.3833 47.8 20.5833 44.3 24.0833 41.4C32.2833 35.6 40.9833 27.4 41.0833 17.1C38.3833 24.5 30.3833 27.7 24.8833 32.7C22.0833 35.4 19.8833 38.6 18.5833 42L18.3833 41.9C19.0833 38.9 20.3833 36.2 21.1833 33.3C23.5833 25.4 23.0833 16 30.7833 10.7C26.8833 11.7 23.2833 14.1 20.5833 17.6C14.1833 24.3 14.8833 34.6 15.7833 43.7C15.8833 46.4 15.2833 49 15.4833 51.6Z" fill="black"/>
<path d="M17.5832 106L18.1831 106.5C17.5831 102.3 17.2832 97.7 18.4832 93.7C20.2832 87.2 22.3831 80.9 23.7831 74.2C24.4831 69 25.7831 63.1 25.1831 58.1C24.4831 60.8 23.6831 63.4 22.2831 65.8C16.4831 74.5 10.7831 84.9 14.7831 96.1C14.6831 96.2 14.5831 96.4 14.3831 96.3C12.7831 92.6 12.4831 88.4 11.3831 84.5C8.68315 74 0.583152 65.3 2.98315 53.2C1.78315 55.8 1.28314 58.8 0.583143 61.7C-0.816857 69.1 0.483143 77 2.58314 83.8C4.98314 92.1 13.3832 98.2 17.5832 106Z" fill="black"/>
<path d="M24.8833 29.2C29.1833 25.2 33.9833 22.1 37.7833 17.4C41.9833 11.5 45.9833 5.20001 51.6833 0.200012C43.9833 3.20001 35.2833 6.1 30.5833 14.3C27.1833 18.6 27.1833 24.4 24.8833 29.2Z" fill="black"/>
<path d="M213.083 55.2L213.883 65.6C213.783 65.7 213.783 66 213.483 65.9C213.183 64.7 213.083 63.5 212.783 62.3C211.383 53.9 204.083 47.9 197.683 42.1C196.283 40.6 195.083 39 194.483 37.2C194.983 41.4 196.283 45.6 198.083 49.5C203.083 59.2 212.183 67.1 213.883 78.2C214.683 67.6 221.983 59.6 221.183 48.3C221.383 39.1 217.583 31.7 212.283 24.8C212.083 24.7 211.983 24.6 211.783 24.6C217.683 33.7 212.883 45 213.083 55.2Z" fill="black"/>
<path d="M214.783 84.4C213.683 88.3 213.383 92.5 211.783 96.2C211.583 96.3 211.483 96.1 211.383 96C215.383 84.8 209.683 74.5 203.883 65.7C202.483 63.3 201.683 60.7 200.983 58C200.383 63 201.683 68.9 202.383 74.1C203.783 80.8 205.883 87.1 207.683 93.6C208.883 97.6 208.583 102.2 207.983 106.4L208.583 105.9C212.783 98.1 221.183 92 223.583 83.5C225.583 76.7 226.983 68.8 225.583 61.4C224.883 58.5 224.383 55.6 223.183 52.9C225.583 65.1 217.483 73.9 214.783 84.4Z" fill="black"/>
<path d="M205.083 33.3C205.883 36.2 207.183 38.9 207.883 41.9L207.683 42C206.383 38.6 204.183 35.5 201.383 32.7C195.883 27.7 187.883 24.5 185.183 17.1C185.283 27.5 193.883 35.6 202.183 41.4C205.583 44.4 208.883 47.8 210.683 51.6C210.883 49 210.283 46.4 210.483 43.6C211.383 34.6 211.983 24.2 205.683 17.5C202.983 14 199.383 11.6 195.483 10.6C203.083 15.9 202.683 25.4 205.083 33.3Z" fill="black"/>
<path d="M188.383 17.3C192.183 22 196.983 25.1 201.283 29.1C198.983 24.3 198.883 18.6 195.583 14.1C190.883 5.90001 182.183 3.1 174.483 0C180.283 5.1 184.183 11.4 188.383 17.3Z" fill="black"/>
<path d="M185.883 139.3C184.183 140.8 182.483 142.1 180.683 143.1C180.283 143.3 179.983 143.5 179.583 143.7L179.483 143.6C179.683 143.5 179.783 143.3 179.983 143.2C182.383 141.1 184.983 138.7 186.583 135.9C192.883 127.1 190.683 114.8 195.383 105.3C191.083 110.5 187.183 115.8 184.583 121.7C181.683 128.8 180.083 136.7 175.783 143.2C174.283 145.4 172.583 147.4 170.283 149.2C178.583 146.5 187.983 146.7 195.883 143.2C197.283 142.6 198.583 141.9 199.783 141C209.083 135.3 217.383 125.5 219.183 114.8C212.783 129.2 196.683 130.4 185.883 139.3Z" fill="black"/>
<path d="M226.083 85.1C225.183 97.9 211.383 104.7 204.983 115.4C203.483 117.6 202.183 120 200.183 121.8C200.483 120.4 201.783 119.3 202.283 117.9C204.483 113.4 205.383 108.1 204.783 102.7C204.183 96.1 201.383 90.1 202.483 83.1C196.883 95.2 198.583 110.4 195.483 123.5C194.683 126.4 192.983 128.9 191.883 131.7C203.383 123.8 219.183 116.4 224.283 101.9C226.283 97 226.483 90.8 226.083 85.1Z" fill="black"/>
<path d="M161.783 152.7C159.883 153 158.083 153.7 155.983 153.4C157.583 152.4 159.883 152.5 161.683 151.5C166.383 149.8 169.383 146.6 171.683 142.9C174.683 138.2 176.583 132.5 179.883 128.1C173.683 132.2 168.383 137.5 162.783 142.9C161.583 144 160.483 145.1 159.283 146.3C154.283 150.7 148.383 152.7 142.083 154C143.583 154.5 145.583 154.4 147.183 154.8C158.483 157.6 170.983 162.1 182.983 158.1C190.383 155.8 197.983 150.1 202.083 143C202.283 142.6 202.483 142.2 202.683 141.8C202.283 142.2 201.983 142.6 201.583 143C191.183 153.3 174.983 149.8 161.783 152.7Z" fill="black"/>
<path d="M78.9834 154.9C80.5834 154.5 82.5834 154.6 84.0834 154.1C77.7834 152.8 71.8834 150.8 66.8834 146.4C65.6834 145.3 64.4834 144.2 63.3834 143C57.7834 137.6 52.4834 132.3 46.2834 128.2C49.5834 132.6 51.4834 138.2 54.4834 143C56.7834 146.7 59.7834 149.9 64.4834 151.6C66.2834 152.5 68.5834 152.4 70.1834 153.5C68.1834 153.8 66.3834 153 64.3834 152.8C51.0834 149.9 34.9834 153.4 24.5834 143.1C24.1834 142.7 23.8834 142.3 23.4834 141.9C23.6834 142.3 23.8834 142.7 24.0834 143.1C28.1834 150.2 35.7834 155.9 43.0834 158.2C55.1834 162.2 67.7834 157.6 78.9834 154.9Z" fill="black"/>
<path d="M30.383 143C38.283 146.6 47.783 146.3 55.983 149C53.783 147.2 51.983 145.1 50.483 143C46.183 136.5 44.583 128.7 41.683 121.5C39.083 115.6 35.183 110.3 30.883 105.1C35.583 114.6 33.383 126.9 39.683 135.7C41.283 138.4 43.883 140.8 46.283 143C46.483 143.1 46.583 143.3 46.783 143.4L46.683 143.5C46.283 143.3 45.983 143.1 45.583 142.9L45.683 143C43.883 142 42.083 140.7 40.383 139.2C29.583 130.3 13.483 129.1 7.08301 114.5C8.78301 125.2 17.183 134.9 26.483 140.7C27.683 141.7 28.983 142.4 30.383 143Z" fill="black"/>
<path d="M113.083 138.1C140.083 138.1 163.383 122.2 174.183 99.2L158.883 92.1C150.783 109.3 133.383 121.3 113.083 121.3C85.1831 121.3 62.5831 98.7 62.5831 70.8C62.5831 42.9 85.1831 20.3 113.083 20.3C133.383 20.3 150.883 32.3 158.883 49.5L174.183 42.4C163.483 19.4 140.183 3.5 113.083 3.5C75.8831 3.5 45.6831 33.7 45.6831 70.9C45.6831 107.9 75.8831 138.1 113.083 138.1Z" fill="black"/>
<path d="M113.083 48.8C120.483 48.8 127.083 52.5 130.983 58.1L143.383 49.4C136.783 39.9 125.683 33.6 113.083 33.6C92.5834 33.6 75.9834 50.2 75.9834 70.7C75.9834 91.2 92.5834 107.8 113.083 107.8C125.683 107.8 136.783 101.5 143.483 92L131.083 83.3C127.083 89 120.583 92.7 113.183 92.7C101.083 92.7 91.2834 82.9 91.2834 70.8C91.1834 58.6 100.983 48.8 113.083 48.8Z" fill="black"/>
</svg>
