<svg width="15" height="15" viewBox="0 0 15 15" fill="none" xmlns="http://www.w3.org/2000/svg">
<path fill-rule="evenodd" clip-rule="evenodd" d="M3.25909 15V4.88182H0.177273V15H3.25909ZM1.71818 3.49091C2.79545 3.49091 3.46364 2.71364 3.46364 1.74545C3.43636 0.75 2.78182 0 1.74545 0C0.681818 0 0 0.75 0 1.74545C0 2.71364 0.668182 3.49091 1.70455 3.49091H1.71818ZM8.01818 15H4.60909C4.60909 15 4.66364 6.13636 4.60909 5.22273H8.01818V6.61364L7.99091 6.64091H8.01818V6.61364C8.33913 6.09571 8.79303 5.67328 9.33263 5.39028C9.87223 5.10729 10.4778 4.97409 11.0864 5.00455C13.3227 5.00455 15 6.39545 15 9.39546V15H11.5909V9.77727C11.5909 8.45455 11.1 7.56818 9.87273 7.56818C8.93182 7.56818 8.37273 8.16818 8.12727 8.75455C8.04545 8.95909 8.01818 9.24545 8.01818 9.54545V15Z" fill="black"/>
</svg>
