<svg width="24" height="24" viewBox="0 0 24 24" fill="none" xmlns="http://www.w3.org/2000/svg">
<path d="M13.31 10.87C14.0184 11.5821 14.416 12.5456 14.416 13.55C14.416 14.5544 14.0184 15.5179 13.31 16.23L9.74999 19.8C9.01201 20.5322 8.01456 20.943 6.97499 20.943C5.93541 20.943 4.93797 20.5322 4.19999 19.8V19.8C3.4678 19.062 3.05695 18.0646 3.05695 17.025C3.05695 15.9854 3.4678 14.988 4.19999 14.25L6.99999 11.41" stroke="black" stroke-width="1.4" stroke-linecap="round" stroke-linejoin="round"/>
<path d="M10.69 13.13C9.98163 12.418 9.58398 11.4544 9.58398 10.45C9.58398 9.44565 9.98163 8.48211 10.69 7.77005L14.25 4.20005C14.988 3.46786 15.9854 3.05701 17.025 3.05701C18.0646 3.05701 19.062 3.46786 19.8 4.20005V4.20005C20.5322 4.93803 20.943 5.93547 20.943 6.97505C20.943 8.01462 20.5322 9.01207 19.8 9.75005L17 12.58" stroke="black" stroke-width="1.4" stroke-linecap="round" stroke-linejoin="round"/>
</svg>
