<svg width="17" height="14" viewBox="0 0 17 14" fill="none" xmlns="http://www.w3.org/2000/svg">
<path fill-rule="evenodd" clip-rule="evenodd" d="M14.3192 1.09325C13.8378 0.582923 13.2167 0.230214 12.5359 0.0804859C11.855 -0.0692419 11.1455 -0.00914148 10.4987 0.253057C9.85178 0.515256 9.29711 0.967562 8.90598 1.5518C8.51485 2.13604 8.30515 2.82549 8.30385 3.53148C8.30385 3.79651 8.34308 4.07478 8.36923 4.35306C6.9812 4.27366 5.62506 3.90005 4.38842 3.25637C3.15179 2.61269 2.06218 1.71326 1.19 0.616202C0.889181 1.16039 0.718953 1.76867 0.693077 2.39187C0.71923 3.63749 1.33385 4.7241 2.26231 5.34691C1.71146 5.33582 1.17206 5.18551 0.693077 4.90961V4.96262C0.693077 6.65878 1.89615 8.08992 3.49154 8.43445C3.19077 8.50071 2.89 8.54046 2.56308 8.56697L2.28846 8.54047L1.93538 8.50071C2.15732 9.2014 2.58859 9.81492 3.16956 10.2565C3.75053 10.698 4.45251 10.9457 5.17846 10.9654C3.69467 12.094 1.84564 12.6145 0 12.4231C1.60239 13.4557 3.46259 14.0028 5.36154 14C11.7692 14 15.2738 8.60672 15.2608 3.95552V3.43872C15.9408 2.96168 16.5292 2.33887 17 1.61005C16.3723 1.91483 15.6923 2.10034 14.9992 2.17985C15.7315 1.74256 16.2546 1.04024 16.5031 0.218663C15.8492 0.629453 15.1038 0.920981 14.3192 1.09325Z" fill="black"/>
</svg>
